<svg width="24" height="24" viewBox="0 0 24 24" fill="none" xmlns="http://www.w3.org/2000/svg">
<g opacity="0.5">
<path d="M16.654 14.2986V12.3685H14.7239V11.6257H16.654V9.70066H17.3967V11.6257H19.3218V12.3685H17.3967V14.2986H16.654Z" fill="white"/>
<path d="M11.3305 15.7895C10.8657 15.7895 10.4548 15.6968 10.0977 15.5116C9.74065 15.3229 9.46107 15.0619 9.25897 14.7284C9.05686 14.3949 8.95581 14.0059 8.95581 13.5613C8.95581 13.1267 9.05855 12.7343 9.26402 12.384C9.47286 12.0337 9.78613 11.7642 10.2038 11.5756L10.1887 11.904C9.84844 11.7389 9.58739 11.5065 9.40549 11.2067C9.2236 10.9036 9.13265 10.5684 9.13265 10.2013C9.13265 9.79031 9.22697 9.43663 9.4156 9.14021C9.60423 8.84379 9.8636 8.61474 10.1937 8.45305C10.5238 8.29137 10.9028 8.21053 11.3305 8.21053C11.7583 8.21053 12.1373 8.29137 12.4674 8.45305C12.7975 8.61474 13.0569 8.84379 13.2455 9.14021C13.4341 9.43663 13.5284 9.79031 13.5284 10.2013C13.5284 10.5684 13.4425 10.9019 13.2708 11.2017C13.099 11.4981 12.8345 11.7322 12.4775 11.904L12.4573 11.5806C12.875 11.7625 13.1882 12.0303 13.3971 12.384C13.6093 12.7343 13.7154 13.1267 13.7154 13.5613C13.7154 14.0059 13.6127 14.3949 13.4072 14.7284C13.2051 15.0619 12.9238 15.3229 12.5634 15.5116C12.2063 15.6968 11.7954 15.7895 11.3305 15.7895ZM11.3305 14.9305C11.755 14.9305 12.0985 14.8143 12.3613 14.5819C12.6274 14.3461 12.7604 14.0059 12.7604 13.5613C12.7604 13.1133 12.6291 12.7731 12.3663 12.5406C12.107 12.3048 11.7617 12.1869 11.3305 12.1869C10.9028 12.1869 10.5575 12.3048 10.2948 12.5406C10.0354 12.7731 9.90571 13.1133 9.90571 13.5613C9.90571 14.0059 10.0371 14.3461 10.2998 14.5819C10.5625 14.8143 10.9061 14.9305 11.3305 14.9305ZM11.3305 11.3229C11.7011 11.3229 12.0009 11.2303 12.2299 11.0451C12.459 10.8564 12.5735 10.5752 12.5735 10.2013C12.5735 9.82737 12.459 9.54779 12.2299 9.36253C12.0009 9.17389 11.7011 9.07958 11.3305 9.07958C10.9634 9.07958 10.6636 9.17389 10.4312 9.36253C10.2021 9.54779 10.0876 9.82737 10.0876 10.2013C10.0876 10.5752 10.2021 10.8564 10.4312 11.0451C10.6636 11.2303 10.9634 11.3229 11.3305 11.3229Z" fill="white"/>
<path d="M6.422 15.638V9.35762L5.05273 10.1863V9.18078L6.422 8.36225H7.33652V15.638H6.422Z" fill="white"/>
<path d="M23.3684 12C23.3684 5.72139 18.2786 0.631579 12 0.631579C5.72139 0.631579 0.631579 5.72139 0.631579 12C0.631579 18.2786 5.72139 23.3684 12 23.3684C18.2786 23.3684 23.3684 18.2786 23.3684 12ZM24 12C24 18.6274 18.6274 24 12 24C5.37258 24 0 18.6274 0 12C0 5.37258 5.37258 0 12 0C18.6274 0 24 5.37258 24 12Z" fill="white"/>
</g>
</svg>
