<svg width="24" height="24" viewBox="0 0 24 24" fill="none" xmlns="http://www.w3.org/2000/svg">
<g opacity="0.5">
<path d="M6.94299 0.0864424L16.8483 0L23.9136 6.94299L24 16.8483L17.0569 23.9136L7.15168 24L0.0864422 17.0569L0 7.15168L6.94299 0.0864424Z" fill="white"/>
<path fill-rule="evenodd" clip-rule="evenodd" d="M7.57738 1.58097L1.50537 7.75989L1.58097 16.4226L7.75989 22.4946L16.4226 22.419L22.4946 16.2401L22.419 7.57738L16.2401 1.50537L7.57738 1.58097ZM16.8483 0L6.94299 0.0864424L0 7.15168L0.0864422 17.0569L7.15168 24L17.0569 23.9136L24 16.8483L23.9136 6.94299L16.8483 0Z" fill="#5A5A5A"/>
<path d="M7.57512 1.57563L16.2423 1.5L22.4244 7.57512L22.5 16.2423L16.4248 22.4244L7.75773 22.5L1.57563 16.4248L1.5 7.75773L7.57512 1.57563Z" fill="#5A5A5A"/>
<path fill-rule="evenodd" clip-rule="evenodd" d="M8.2095 3.07016L3.00537 8.36594L3.07016 15.7905L8.36594 20.9946L15.7905 20.9298L20.9946 15.6341L20.9298 8.2095L15.6341 3.00537L8.2095 3.07016ZM16.2423 1.5L7.57512 1.57563L1.5 7.75773L1.57563 16.4248L7.75773 22.5L16.4248 22.4244L22.5 16.2423L22.4244 7.57512L16.2423 1.5Z" fill="white"/>
<path d="M17.5326 12.9377C17.1137 12.519 16.4969 12.4812 16.0779 12.9L14.8804 14.097C14.5686 14.4082 14.1929 14.4089 13.9736 14.1502C13.8283 13.9787 13.8857 13.4499 13.9264 13.1145L14.527 8.17773C14.5806 7.73667 14.2664 7.31058 13.8252 7.25698C13.384 7.20334 12.9828 7.54251 12.9291 7.98348L12.2666 11.8611C12.232 11.9575 12.1577 11.9742 12.1494 11.8443L11.9239 6.80438C11.9239 6.36011 11.5636 6 11.1191 6C10.6746 6 10.3143 6.36011 10.3143 6.80438L10.2985 11.8821C10.3027 11.9406 10.2524 11.9574 10.2433 11.8905L9.52733 7.92696C9.44833 7.48975 9.02968 7.17422 8.59231 7.25322C8.15486 7.33217 7.86437 7.77569 7.94332 8.2128L8.58088 12.851C8.58154 12.9335 8.55383 12.9807 8.51456 12.8749L7.56343 10.332C7.41461 9.91339 6.95452 9.66942 6.53566 9.81812C6.11684 9.96683 5.89787 10.4519 6.04663 10.8704L7.71404 16.3179C7.72274 16.3479 7.73197 16.3778 7.74142 16.4074L7.7449 16.4187C7.74521 16.4196 7.74562 16.4204 7.7459 16.4213C8.20766 17.8425 9.54325 18.87 11.1192 18.87C12.128 18.87 13.1758 18.5143 13.9735 17.9026C14.835 17.3841 17.5953 14.4166 17.5953 14.4166C18.0143 13.9978 17.9517 13.3566 17.5326 12.9377Z" fill="white"/>
</g>
</svg>
